<mxfile host="65bd71144e">
    <diagram id="KknGLGYNW9H0t5KoIIjg" name="ページ1">
        <mxGraphModel dx="1275" dy="1178" grid="1" gridSize="10" guides="1" tooltips="1" connect="0" arrows="1" fold="1" page="1" pageScale="1" pageWidth="1169" pageHeight="827" background="none" math="0" shadow="0">
            <root>
                <mxCell id="0"/>
                <mxCell id="1" parent="0"/>
                <mxCell id="3" value="" style="html=1;points=[];perimeter=orthogonalPerimeter;fillColor=#1ba1e2;fontColor=#ffffff;strokeColor=#006EAF;" parent="1" vertex="1">
                    <mxGeometry x="92" y="120" width="10" height="670" as="geometry"/>
                </mxCell>
                <mxCell id="4" value="ユーザーの&lt;br&gt;メイン画面" style="shape=umlLifeline;perimeter=lifelinePerimeter;whiteSpace=wrap;html=1;container=1;collapsible=0;recursiveResize=0;outlineConnect=0;fillColor=#1ba1e2;fontColor=#ffffff;strokeColor=#006EAF;" parent="1" vertex="1">
                    <mxGeometry x="167" y="60" width="100" height="750" as="geometry"/>
                </mxCell>
                <mxCell id="6" value="" style="html=1;points=[];perimeter=orthogonalPerimeter;" parent="4" vertex="1">
                    <mxGeometry x="45" y="80" width="10" height="30" as="geometry"/>
                </mxCell>
                <mxCell id="7" value="本棚の&lt;br&gt;管理画面" style="shape=umlLifeline;perimeter=lifelinePerimeter;whiteSpace=wrap;html=1;container=1;collapsible=0;recursiveResize=0;outlineConnect=0;fillColor=#1ba1e2;fontColor=#ffffff;strokeColor=#006EAF;" parent="1" vertex="1">
                    <mxGeometry x="287" y="60" width="100" height="760" as="geometry"/>
                </mxCell>
                <mxCell id="20" value="" style="html=1;points=[];perimeter=orthogonalPerimeter;" parent="7" vertex="1">
                    <mxGeometry x="45" y="140" width="10" height="30" as="geometry"/>
                </mxCell>
                <mxCell id="21" value="" style="html=1;points=[];perimeter=orthogonalPerimeter;" parent="7" vertex="1">
                    <mxGeometry x="45" y="200" width="10" height="30" as="geometry"/>
                </mxCell>
                <mxCell id="22" value="本棚の情報をセット" style="html=1;verticalAlign=bottom;endArrow=block;" parent="7" source="16" edge="1">
                    <mxGeometry width="80" relative="1" as="geometry">
                        <mxPoint x="330" y="155" as="sourcePoint"/>
                        <mxPoint x="55" y="155" as="targetPoint"/>
                    </mxGeometry>
                </mxCell>
                <mxCell id="27" value="" style="html=1;points=[];perimeter=orthogonalPerimeter;fontSize=11;" parent="7" vertex="1">
                    <mxGeometry x="45" y="300" width="10" height="30" as="geometry"/>
                </mxCell>
                <mxCell id="50" value="&lt;font style=&quot;font-size: 11px&quot;&gt;本棚を登録する(本棚１)&lt;/font&gt;" style="html=1;verticalAlign=bottom;endArrow=block;fontSize=10;entryX=0.081;entryY=0.09;entryDx=0;entryDy=0;entryPerimeter=0;" parent="7" target="33" edge="1">
                    <mxGeometry width="80" relative="1" as="geometry">
                        <mxPoint x="55" y="314.69" as="sourcePoint"/>
                        <mxPoint x="135" y="314.69" as="targetPoint"/>
                    </mxGeometry>
                </mxCell>
                <mxCell id="9" value="本棚の&lt;br&gt;変更画面" style="shape=umlLifeline;perimeter=lifelinePerimeter;whiteSpace=wrap;html=1;container=1;collapsible=0;recursiveResize=0;outlineConnect=0;fillColor=#1ba1e2;fontColor=#ffffff;strokeColor=#006EAF;" parent="1" vertex="1">
                    <mxGeometry x="407" y="60" width="100" height="760" as="geometry"/>
                </mxCell>
                <mxCell id="31" value="" style="html=1;points=[];perimeter=orthogonalPerimeter;fontSize=11;" parent="9" vertex="1">
                    <mxGeometry x="45" y="480" width="10" height="30" as="geometry"/>
                </mxCell>
                <mxCell id="62" value="" style="html=1;points=[];perimeter=orthogonalPerimeter;fontSize=11;" parent="9" vertex="1">
                    <mxGeometry x="45" y="700" width="10" height="30" as="geometry"/>
                </mxCell>
                <mxCell id="10" value="本棚管理&lt;br&gt;コントローラ" style="shape=umlLifeline;perimeter=lifelinePerimeter;whiteSpace=wrap;html=1;container=1;collapsible=0;recursiveResize=0;outlineConnect=0;fillColor=#60a917;fontColor=#ffffff;strokeColor=#2D7600;" parent="1" vertex="1">
                    <mxGeometry x="567" y="60" width="120" height="760" as="geometry"/>
                </mxCell>
                <mxCell id="16" value="" style="html=1;points=[];perimeter=orthogonalPerimeter;" parent="10" vertex="1">
                    <mxGeometry x="55" y="80" width="10" height="180" as="geometry"/>
                </mxCell>
                <mxCell id="33" value="" style="html=1;points=[];perimeter=orthogonalPerimeter;fontSize=11;" parent="10" vertex="1">
                    <mxGeometry x="55" y="300" width="10" height="160" as="geometry"/>
                </mxCell>
                <mxCell id="37" value="&lt;font style=&quot;font-size: 11px&quot;&gt;本棚の情報をセット&lt;/font&gt;" style="html=1;verticalAlign=bottom;endArrow=block;exitX=1;exitY=0.1;exitDx=0;exitDy=0;exitPerimeter=0;" parent="10" source="43" edge="1">
                    <mxGeometry width="80" relative="1" as="geometry">
                        <mxPoint x="45" y="369" as="sourcePoint"/>
                        <mxPoint x="-99.5" y="369" as="targetPoint"/>
                    </mxGeometry>
                </mxCell>
                <mxCell id="44" value="" style="html=1;points=[];perimeter=orthogonalPerimeter;fontSize=10;" parent="10" vertex="1">
                    <mxGeometry x="55" y="480" width="10" height="190" as="geometry"/>
                </mxCell>
                <mxCell id="63" value="" style="html=1;points=[];perimeter=orthogonalPerimeter;fontSize=11;" parent="10" vertex="1">
                    <mxGeometry x="55" y="700" width="10" height="30" as="geometry"/>
                </mxCell>
                <mxCell id="67" value="本棚の情報を取得する(本棚２)" style="html=1;verticalAlign=bottom;endArrow=block;fontSize=11;entryX=-0.029;entryY=0.514;entryDx=0;entryDy=0;entryPerimeter=0;" parent="10" target="65" edge="1">
                    <mxGeometry width="80" relative="1" as="geometry">
                        <mxPoint x="66" y="495" as="sourcePoint"/>
                        <mxPoint x="146" y="495" as="targetPoint"/>
                    </mxGeometry>
                </mxCell>
                <mxCell id="11" value="本棚台帳" style="shape=umlLifeline;perimeter=lifelinePerimeter;whiteSpace=wrap;html=1;container=1;collapsible=0;recursiveResize=0;outlineConnect=0;fillColor=#d80073;fontColor=#ffffff;strokeColor=#A50040;" parent="1" vertex="1">
                    <mxGeometry x="727" y="60" width="110" height="760" as="geometry"/>
                </mxCell>
                <mxCell id="19" value="" style="html=1;points=[];perimeter=orthogonalPerimeter;" parent="11" vertex="1">
                    <mxGeometry x="45" y="80" width="10" height="30" as="geometry"/>
                </mxCell>
                <mxCell id="53" value="" style="html=1;points=[];perimeter=orthogonalPerimeter;fontSize=10;" parent="11" vertex="1">
                    <mxGeometry x="50" y="416" width="10" height="30" as="geometry"/>
                </mxCell>
                <mxCell id="60" value="&lt;font style=&quot;font-size: 11px&quot;&gt;（本棚名, 段数, 格段のサイズ）&lt;/font&gt;" style="text;html=1;align=center;verticalAlign=middle;resizable=0;points=[];autosize=1;strokeColor=none;fillColor=none;fontSize=10;" parent="11" vertex="1">
                    <mxGeometry x="-61" y="368" width="170" height="20" as="geometry"/>
                </mxCell>
                <mxCell id="69" value="" style="html=1;points=[];perimeter=orthogonalPerimeter;fontSize=11;" parent="11" vertex="1">
                    <mxGeometry x="50" y="560" width="10" height="30" as="geometry"/>
                </mxCell>
                <mxCell id="71" value="本棚の情報を更新&lt;font style=&quot;font-size: 11px&quot;&gt;する&lt;/font&gt;" style="html=1;verticalAlign=bottom;endArrow=block;fontSize=10;exitX=0.914;exitY=0.526;exitDx=0;exitDy=0;exitPerimeter=0;entryX=-0.209;entryY=0.465;entryDx=0;entryDy=0;entryPerimeter=0;" parent="11" target="69" edge="1">
                    <mxGeometry width="80" relative="1" as="geometry">
                        <mxPoint x="-95.8599999999999" y="573.6800000000001" as="sourcePoint"/>
                        <mxPoint x="43" y="573.44" as="targetPoint"/>
                    </mxGeometry>
                </mxCell>
                <mxCell id="12" value="本棚１" style="shape=umlLifeline;perimeter=lifelinePerimeter;whiteSpace=wrap;html=1;container=1;collapsible=0;recursiveResize=0;outlineConnect=0;fillColor=#d80073;fontColor=#ffffff;strokeColor=#A50040;" parent="1" vertex="1">
                    <mxGeometry x="833" y="360" width="100" height="460" as="geometry"/>
                </mxCell>
                <mxCell id="56" value="" style="html=1;points=[];perimeter=orthogonalPerimeter;fontSize=10;" parent="12" vertex="1">
                    <mxGeometry x="44" y="54" width="10" height="30" as="geometry"/>
                </mxCell>
                <mxCell id="70" value="&lt;font style=&quot;font-size: 11px&quot;&gt;（本棚名, 段数, 格段のサイズ）&lt;/font&gt;" style="text;html=1;align=center;verticalAlign=middle;resizable=0;points=[];autosize=1;strokeColor=none;fillColor=none;fontSize=10;" parent="12" vertex="1">
                    <mxGeometry x="-105" y="233" width="170" height="20" as="geometry"/>
                </mxCell>
                <mxCell id="13" value="本棚２" style="shape=umlLifeline;perimeter=lifelinePerimeter;whiteSpace=wrap;html=1;container=1;collapsible=0;recursiveResize=0;outlineConnect=0;fillColor=#d80073;fontColor=#ffffff;strokeColor=#A50040;" parent="1" vertex="1">
                    <mxGeometry x="947" y="490" width="100" height="330" as="geometry"/>
                </mxCell>
                <mxCell id="65" value="" style="html=1;points=[];perimeter=orthogonalPerimeter;fontSize=11;" parent="13" vertex="1">
                    <mxGeometry x="45" y="50" width="10" height="30" as="geometry"/>
                </mxCell>
                <mxCell id="66" value="" style="html=1;points=[];perimeter=orthogonalPerimeter;fontSize=11;" parent="13" vertex="1">
                    <mxGeometry x="45" y="90" width="10" height="30" as="geometry"/>
                </mxCell>
                <mxCell id="14" value="本棚を管理する" style="html=1;verticalAlign=bottom;endArrow=block;exitX=0.927;exitY=0.054;exitDx=0;exitDy=0;exitPerimeter=0;entryX=0.023;entryY=0.488;entryDx=0;entryDy=0;entryPerimeter=0;" parent="1" source="3" target="6" edge="1">
                    <mxGeometry width="80" relative="1" as="geometry">
                        <mxPoint x="337" y="400" as="sourcePoint"/>
                        <mxPoint x="417" y="400" as="targetPoint"/>
                    </mxGeometry>
                </mxCell>
                <mxCell id="18" value="本棚を管理する" style="html=1;verticalAlign=bottom;endArrow=block;entryX=-0.007;entryY=0.086;entryDx=0;entryDy=0;entryPerimeter=0;" parent="1" source="6" target="16" edge="1">
                    <mxGeometry width="80" relative="1" as="geometry">
                        <mxPoint x="244.78571428571433" y="152" as="sourcePoint"/>
                        <mxPoint x="607" y="155" as="targetPoint"/>
                    </mxGeometry>
                </mxCell>
                <mxCell id="23" value="画面表示()" style="html=1;verticalAlign=bottom;endArrow=block;entryX=1.114;entryY=0.488;entryDx=0;entryDy=0;entryPerimeter=0;exitX=-0.05;exitY=0.748;exitDx=0;exitDy=0;exitPerimeter=0;" parent="1" source="16" target="21" edge="1">
                    <mxGeometry width="80" relative="1" as="geometry">
                        <mxPoint x="611.5" y="270" as="sourcePoint"/>
                        <mxPoint x="337" y="270" as="targetPoint"/>
                    </mxGeometry>
                </mxCell>
                <mxCell id="24" value="&lt;span style=&quot;font-size: 11px&quot;&gt;（本棚名, 段数, 格段のサイズ）&lt;/span&gt;" style="text;html=1;align=center;verticalAlign=middle;resizable=0;points=[];autosize=1;strokeColor=none;fillColor=none;" parent="1" vertex="1">
                    <mxGeometry x="392" y="210" width="170" height="20" as="geometry"/>
                </mxCell>
                <mxCell id="25" value="本棚を取得する" style="html=1;verticalAlign=bottom;endArrow=block;fontSize=11;" parent="1" source="16" edge="1">
                    <mxGeometry width="80" relative="1" as="geometry">
                        <mxPoint x="627" y="154" as="sourcePoint"/>
                        <mxPoint x="773" y="154" as="targetPoint"/>
                    </mxGeometry>
                </mxCell>
                <mxCell id="28" value="本棚を登録する" style="html=1;verticalAlign=bottom;startArrow=oval;startFill=1;endArrow=block;startSize=8;fontSize=11;exitX=1.4;exitY=0.401;exitDx=0;exitDy=0;exitPerimeter=0;" parent="1" edge="1">
                    <mxGeometry width="60" relative="1" as="geometry">
                        <mxPoint x="101" y="373.64" as="sourcePoint"/>
                        <mxPoint x="332" y="374" as="targetPoint"/>
                    </mxGeometry>
                </mxCell>
                <mxCell id="32" value="変更ボタンを押す" style="html=1;verticalAlign=bottom;startArrow=oval;startFill=1;endArrow=block;startSize=8;fontSize=11;entryX=0.05;entryY=0.5;entryDx=0;entryDy=0;entryPerimeter=0;" parent="1" target="31" edge="1">
                    <mxGeometry width="60" relative="1" as="geometry">
                        <mxPoint x="107" y="555" as="sourcePoint"/>
                        <mxPoint x="333" y="560.36" as="targetPoint"/>
                    </mxGeometry>
                </mxCell>
                <mxCell id="35" value="" style="html=1;points=[];perimeter=orthogonalPerimeter;" parent="1" vertex="1">
                    <mxGeometry x="452" y="414" width="10" height="30" as="geometry"/>
                </mxCell>
                <mxCell id="36" value="" style="html=1;points=[];perimeter=orthogonalPerimeter;" parent="1" vertex="1">
                    <mxGeometry x="452.5" y="474" width="10" height="30" as="geometry"/>
                </mxCell>
                <mxCell id="38" value="画面表示()" style="html=1;verticalAlign=bottom;endArrow=block;entryX=1.114;entryY=0.488;entryDx=0;entryDy=0;entryPerimeter=0;exitX=0.067;exitY=0.812;exitDx=0;exitDy=0;exitPerimeter=0;" parent="1" source="33" target="36" edge="1">
                    <mxGeometry width="80" relative="1" as="geometry">
                        <mxPoint x="607" y="489" as="sourcePoint"/>
                        <mxPoint x="457.5" y="484" as="targetPoint"/>
                    </mxGeometry>
                </mxCell>
                <mxCell id="43" value="&lt;font style=&quot;font-size: 11px&quot;&gt;（本棚名, 段数, 格段のサイズ）&lt;/font&gt;" style="text;html=1;align=center;verticalAlign=middle;resizable=0;points=[];autosize=1;strokeColor=none;fillColor=none;fontSize=10;" parent="1" vertex="1">
                    <mxGeometry x="457.5" y="427" width="170" height="20" as="geometry"/>
                </mxCell>
                <mxCell id="45" value="本棚の情報をセット" style="html=1;verticalAlign=bottom;endArrow=block;exitX=0.971;exitY=0.063;exitDx=0;exitDy=0;exitPerimeter=0;entryX=0.027;entryY=0.055;entryDx=0;entryDy=0;entryPerimeter=0;" parent="1" source="49" target="49" edge="1">
                    <mxGeometry width="80" relative="1" as="geometry">
                        <mxPoint x="61.83" y="593" as="sourcePoint"/>
                        <mxPoint x="467.3300000000001" y="652.9999999999999" as="targetPoint"/>
                    </mxGeometry>
                </mxCell>
                <mxCell id="46" value="" style="html=1;points=[];perimeter=orthogonalPerimeter;" parent="1" vertex="1">
                    <mxGeometry x="452.33" y="638" width="10" height="30" as="geometry"/>
                </mxCell>
                <mxCell id="47" value="" style="html=1;points=[];perimeter=orthogonalPerimeter;" parent="1" vertex="1">
                    <mxGeometry x="452.33" y="689" width="10" height="30" as="geometry"/>
                </mxCell>
                <mxCell id="48" value="画面表示()" style="html=1;verticalAlign=bottom;endArrow=block;entryX=1.114;entryY=0.488;entryDx=0;entryDy=0;entryPerimeter=0;exitX=0.067;exitY=0.859;exitDx=0;exitDy=0;exitPerimeter=0;" parent="1" source="44" target="47" edge="1">
                    <mxGeometry width="80" relative="1" as="geometry">
                        <mxPoint x="622.5000000000001" y="704.92" as="sourcePoint"/>
                        <mxPoint x="457.33" y="699" as="targetPoint"/>
                    </mxGeometry>
                </mxCell>
                <mxCell id="49" value="&lt;font style=&quot;font-size: 11px&quot;&gt;（本棚名, 段数, 格段のサイズ）&lt;/font&gt;" style="text;html=1;align=center;verticalAlign=middle;resizable=0;points=[];autosize=1;strokeColor=none;fillColor=none;fontSize=10;" parent="1" vertex="1">
                    <mxGeometry x="457.33" y="651" width="170" height="20" as="geometry"/>
                </mxCell>
                <mxCell id="51" value="&lt;font style=&quot;font-size: 11px&quot;&gt;本棚の情報を変更する(本棚２)&lt;/font&gt;" style="html=1;verticalAlign=bottom;endArrow=block;fontSize=10;" parent="1" edge="1">
                    <mxGeometry width="80" relative="1" as="geometry">
                        <mxPoint x="462" y="555" as="sourcePoint"/>
                        <mxPoint x="622" y="555" as="targetPoint"/>
                        <Array as="points"/>
                    </mxGeometry>
                </mxCell>
                <mxCell id="52" value="本棚を登録&lt;font style=&quot;font-size: 11px&quot;&gt;する&lt;/font&gt;" style="html=1;verticalAlign=bottom;endArrow=block;fontSize=10;" parent="1" target="53" edge="1">
                    <mxGeometry width="80" relative="1" as="geometry">
                        <mxPoint x="634" y="490" as="sourcePoint"/>
                        <mxPoint x="754" y="490" as="targetPoint"/>
                    </mxGeometry>
                </mxCell>
                <mxCell id="55" value="&lt;font style=&quot;font-size: 11px&quot;&gt;create()&lt;/font&gt;" style="endArrow=open;endSize=12;dashed=1;html=1;fontSize=10;" parent="1" edge="1">
                    <mxGeometry width="160" relative="1" as="geometry">
                        <mxPoint x="632" y="374" as="sourcePoint"/>
                        <mxPoint x="836" y="374" as="targetPoint"/>
                    </mxGeometry>
                </mxCell>
                <mxCell id="57" value="&lt;font style=&quot;font-size: 11px&quot;&gt;本棚の情報をセット&lt;/font&gt;" style="html=1;verticalAlign=bottom;endArrow=block;fontSize=10;entryX=0.061;entryY=0.492;entryDx=0;entryDy=0;entryPerimeter=0;" parent="1" target="56" edge="1">
                    <mxGeometry width="80" relative="1" as="geometry">
                        <mxPoint x="632" y="430" as="sourcePoint"/>
                        <mxPoint x="855" y="444" as="targetPoint"/>
                    </mxGeometry>
                </mxCell>
                <mxCell id="68" value="本棚の情報をセット" style="html=1;verticalAlign=bottom;endArrow=block;fontSize=11;entryX=0.162;entryY=0.489;entryDx=0;entryDy=0;entryPerimeter=0;exitX=0.941;exitY=0.305;exitDx=0;exitDy=0;exitPerimeter=0;" parent="1" source="44" target="66" edge="1">
                    <mxGeometry width="80" relative="1" as="geometry">
                        <mxPoint x="637" y="595" as="sourcePoint"/>
                        <mxPoint x="717" y="600" as="targetPoint"/>
                    </mxGeometry>
                </mxCell>
                <mxCell id="73" value="本棚を削除する" style="html=1;verticalAlign=bottom;endArrow=block;fontSize=11;" parent="1" edge="1">
                    <mxGeometry width="80" relative="1" as="geometry">
                        <mxPoint x="462" y="774.6" as="sourcePoint"/>
                        <mxPoint x="621.5" y="774.5999999999999" as="targetPoint"/>
                    </mxGeometry>
                </mxCell>
                <mxCell id="74" value="" style="html=1;points=[];perimeter=orthogonalPerimeter;fontSize=11;" parent="1" vertex="1">
                    <mxGeometry x="777" y="760" width="10" height="30" as="geometry"/>
                </mxCell>
                <mxCell id="75" value="本棚を削除する" style="html=1;verticalAlign=bottom;endArrow=block;fontSize=11;" parent="1" target="74" edge="1">
                    <mxGeometry width="80" relative="1" as="geometry">
                        <mxPoint x="627.5" y="774.5999999999999" as="sourcePoint"/>
                        <mxPoint x="787" y="774.5999999999999" as="targetPoint"/>
                    </mxGeometry>
                </mxCell>
                <mxCell id="80" value="ユーザー" style="shape=umlActor;verticalLabelPosition=bottom;verticalAlign=top;html=1;labelBackgroundColor=none;" vertex="1" parent="1">
                    <mxGeometry x="90" y="40" width="22" height="50" as="geometry"/>
                </mxCell>
            </root>
        </mxGraphModel>
    </diagram>
</mxfile>